<svg width="196" height="171" viewBox="0 0 196 171" fill="none" xmlns="http://www.w3.org/2000/svg">
<g clip-path="url(#clip0_179_5862)">
<path d="M118.313 184.474L80.9357 151.796L31.5935 157.298L43.54 119.176L130.26 146.352L118.313 184.474Z" fill="#B24E10"/>
<path d="M167.694 130.919L84.62 140.039L21.609 85.1387L17.9612 96.7789L69.5188 141.826L35.2412 145.658L31.5934 157.298L80.9357 151.796L118.313 184.474L121.961 172.834L96.0003 150.125L164.046 142.559L167.694 130.919Z" fill="#E36415"/>
<path d="M110.702 56.81L54.7173 8.04224C51.4049 5.15063 46.2135 6.6237 44.9002 10.8142L21.609 85.137L76.0355 132.554L95.9694 138.801L167.694 130.917L190.985 56.5941C192.298 52.4036 188.876 48.2312 184.506 48.7153L110.702 56.81Z" fill="#399349"/>
<path d="M103.012 32.0943C94.461 23.2787 70.2729 8.98737 70.2729 8.98737L52.2625 17.9163L32.1175 82.1995L81.8153 125.737L88.4502 127.817L110.702 56.8112C110.702 56.8112 111.524 40.9299 103.012 32.0943Z" fill="#FFCB5D"/>
<path d="M70.3802 9.05295L44.1525 92.7462L32.1175 82.1995L52.2625 17.9163L70.2729 8.98737C70.2729 8.98737 70.302 8.99649 70.3802 9.05295Z" fill="#FFE3A9"/>
<path d="M131.123 40.9039C143.175 38.5449 171.194 40.614 171.194 40.614L180.887 58.2248L160.742 122.508L95.0851 129.896L88.4502 127.817L110.702 56.8114C110.702 56.8114 119.09 43.3012 131.123 40.9039Z" fill="#FFCB5D"/>
<path d="M109.247 56.3555L112.157 57.2674L89.9053 128.273L86.9952 127.361L109.247 56.3555Z" fill="#FFB30F"/>
<path d="M171.068 40.6053L144.841 124.298L160.742 122.507L180.887 58.2234L171.194 40.6126C171.194 40.6126 171.077 40.5762 171.068 40.6053Z" fill="#FFE3A9"/>
<path d="M171.043 60.0605L173.954 60.9725L155.35 120.338L152.44 119.426L171.043 60.0605Z" fill="#FFCB5D"/>
<path d="M160.742 122.508L150.137 107.807C150.137 107.807 122.109 105.767 110.048 108.155C98.006 110.582 88.4503 127.817 88.4503 127.817L95.0852 129.896L160.742 122.508Z" fill="#FFB30F"/>
<path d="M75.589 25.0506L100.105 43.0991L98.2964 45.5556L73.7805 27.5071L75.589 25.0506ZM71.1455 39.2266L95.6615 57.2751L93.853 59.7317L69.3371 41.6832L71.1455 39.2266ZM66.7206 53.3784L91.2365 71.4269L89.428 73.8835L64.9121 55.835L66.7206 53.3784ZM62.2768 67.5544L86.793 85.603L84.9846 88.0595L60.4686 70.011L62.2768 67.5544Z" fill="#399349"/>
<path d="M56.3872 24.1309L59.2973 25.0428L40.6935 84.408L37.7834 83.496L56.3872 24.1309Z" fill="#FFCB5D"/>
<path d="M32.1175 82.1996L49.2159 76.1807C49.2159 76.1807 73.3949 90.5011 81.9364 99.3459C90.4397 108.211 88.4501 127.817 88.4501 127.817L81.8152 125.738L32.1175 82.1996Z" fill="#FFB30F"/>
<path d="M38.9033 79.82L76.6133 110.621L78.5673 108.261L42.2862 78.6111L38.9033 79.82Z" fill="#FFCB5D"/>
<path d="M157.741 53.7901L127.309 54.6191L127.226 51.5698L157.658 50.7408L157.741 53.7901ZM153.307 67.9383L122.875 68.7676L122.792 65.7183L153.223 64.8893L153.307 67.9383ZM148.873 82.1171L118.441 82.9461L118.358 79.8968L148.79 79.0678L148.873 82.1171ZM144.438 96.2646L114.007 97.0937L113.923 94.0444L144.355 93.2152L144.438 96.2646Z" fill="#399349"/>
<path d="M156.528 116.68L107.984 120.45L107.726 117.397L154.44 113.756L156.528 116.68Z" fill="#FFCB5D"/>
<path d="M91.3229 118.65C87.6562 117.501 83.7578 119.539 82.6087 123.205L81.8153 125.737L95.0561 129.886L95.8495 127.355C97.0277 123.697 94.9896 119.799 91.3229 118.65Z" fill="#2B6E38"/>
<path d="M117.684 118.154L107.85 118.939L101.832 138.146L108.622 131.773L111.756 137.069L117.684 118.154Z" fill="#E86B4D"/>
<path d="M68.9343 8.5683L71.8443 9.48025L50.7783 76.7026L47.8682 75.7906L68.9343 8.5683ZM117.857 185.929C117.654 185.865 117.459 185.772 117.312 185.63L80.4342 153.396L31.756 158.819C31.2557 158.886 30.7501 158.663 30.4248 158.274C30.0994 157.884 29.9834 157.337 30.1385 156.842L33.7863 145.202C33.9687 144.62 34.482 144.205 35.0788 144.137L65.9104 140.696L16.9598 97.9351C16.5089 97.5382 16.3238 96.9049 16.5062 96.3229L20.154 84.6827C20.3091 84.188 20.7169 83.8044 21.2064 83.6702C21.6959 83.536 22.2379 83.6419 22.6106 83.9824L85.1216 138.439L167.531 129.398C168.032 129.331 168.537 129.553 168.863 129.943C169.188 130.332 169.304 130.88 169.149 131.375L165.501 143.015C165.319 143.597 164.805 144.011 164.209 144.08L99.5998 151.285L122.953 171.707C123.404 172.104 123.589 172.737 123.407 173.319L119.759 184.959C119.604 185.454 119.196 185.837 118.707 185.971C118.437 186.015 118.148 186.02 117.857 185.929ZM81.3917 150.341C81.5954 150.405 81.79 150.498 81.9373 150.64L117.56 181.777L120.214 173.309L94.9698 151.272C94.5189 150.875 94.3339 150.242 94.5163 149.66C94.6987 149.078 95.212 148.664 95.8088 148.595L162.892 141.143L165.546 132.674L84.7825 141.56C84.3495 141.616 83.9421 141.489 83.6185 141.195L22.3619 87.8354L19.7081 96.3036L70.5404 140.708C70.9912 141.105 71.1763 141.739 70.9939 142.321C70.8115 142.903 70.2982 143.317 69.7014 143.386L36.3954 147.074L33.7416 155.542L80.7641 150.304C80.9661 150.271 81.188 150.277 81.3917 150.341Z" fill="#242E2C"/>
<path d="M86.9695 118.468C86.5666 112.717 85.172 104.93 80.8076 100.398C73.2586 92.5675 52.8367 80.1276 49.0144 77.8432L32.6257 83.6371L31.6092 80.7619L48.7077 74.743C49.1389 74.5905 49.6028 74.64 49.9829 74.8549C50.9775 75.4543 74.4546 89.363 83.007 98.275C88.0203 103.489 89.5726 111.997 90.0133 118.24L86.9695 118.468Z" fill="#242E2C"/>
<path d="M80.8137 126.893L31.116 83.3553C30.6651 82.9583 30.4801 82.325 30.6625 81.743L50.8075 17.4599C50.9442 17.0234 51.2847 16.6507 51.6869 16.4891L69.5826 7.6201C70.0413 7.38032 70.6016 7.42807 71.0398 7.66129C72.0345 8.26061 95.5207 22.1402 104.082 31.0232C112.958 40.2284 112.234 56.2044 112.217 56.8702C112.21 56.9957 112.202 57.1212 112.166 57.2376L92.7414 119.222L89.8313 118.31L109.183 56.5585C109.219 54.812 109.392 40.9004 101.912 33.1554C94.432 25.4103 74.2446 13.1398 70.2078 10.7242L53.5169 19.0121L33.8643 81.7238L82.8076 124.61L80.8137 126.893Z" fill="#242E2C"/>
<path d="M94.629 131.35L81.3883 127.201C80.5735 126.945 80.1339 126.104 80.3892 125.29L81.1826 122.758C82.5779 118.305 87.3554 115.808 91.8078 117.203C96.2602 118.598 98.7578 123.376 97.3625 127.828L96.5691 130.36C96.2847 131.166 95.4147 131.596 94.629 131.35ZM83.7262 124.737L94.0569 127.975L94.3943 126.898C95.288 124.046 93.6895 120.989 90.8376 120.095C87.9858 119.201 84.9282 120.8 84.0345 123.652L83.6971 124.728L83.7262 124.737ZM167.798 45.9406L170.708 46.8526L151.466 108.255L148.556 107.343L167.798 45.9406Z" fill="#242E2C"/>
<path d="M104.581 127.336L104.923 130.367L95.2532 131.456L94.912 128.425L104.581 127.336ZM114.865 129.192L114.53 126.179L159.579 121.121L179.231 58.4091L170.256 42.0779C165.562 41.7576 141.982 40.3124 131.42 42.4034C120.175 44.632 112.055 57.4912 111.989 57.5985L109.394 55.9864C109.761 55.43 118.293 41.8689 130.826 39.4048C142.946 37.0349 170.162 39.0124 171.32 39.0879C171.823 39.1174 172.301 39.4271 172.541 39.8857L182.174 57.3818C182.441 57.7531 182.508 58.2535 182.371 58.69L162.226 122.973C162.044 123.555 161.53 123.97 160.934 124.038L114.865 129.192Z" fill="#242E2C"/>
<path d="M95.4844 140.248L75.5505 134.001C75.3468 133.937 75.1523 133.844 75.005 133.702L20.6076 86.2945C20.1568 85.8975 19.9717 85.2643 20.1541 84.6823L43.4453 10.3594C44.2205 7.88587 46.154 5.99905 48.6397 5.30791C51.1253 4.61676 53.7882 5.1956 55.7189 6.88722L62.2454 12.5758L60.2424 14.8882L53.7159 9.19969C52.5397 8.15996 50.9808 7.83125 49.4742 8.25393C47.9675 8.6766 46.8205 9.78724 46.3463 11.3005L23.356 84.663L76.7826 131.191L96.1054 137.246L166.54 129.502L189.53 56.1394C190.004 54.6261 189.687 53.0886 188.7 51.8526C187.704 50.6456 186.237 50.0259 184.678 50.2084L176.072 51.1548L175.747 48.1127L184.353 47.1664C186.932 46.8883 189.429 47.8945 191.067 49.9097C192.714 51.8958 193.215 54.5778 192.449 57.0222L169.149 131.374C168.967 131.956 168.453 132.371 167.856 132.439L96.1029 140.314C95.901 140.346 95.6881 140.311 95.4844 140.248Z" fill="#242E2C"/>
<path d="M95.0013 120.984L92.6233 119.089C96.5476 114.214 102.687 108.085 109.77 106.693C121.87 104.285 149.096 106.234 150.254 106.309C150.689 106.35 151.127 106.583 151.365 106.945L161.971 121.646L159.495 123.427L149.315 109.307C144.902 109.01 121.004 107.561 110.336 109.683C104.175 110.884 98.5761 116.512 95.0013 120.984ZM40.2611 124.539L43.1712 125.451L36.6963 146.112L33.7863 145.2L40.2611 124.539ZM128.805 145.895L131.715 146.807L123.416 173.289L120.506 172.377L128.805 145.895ZM75.5891 25.0499L100.105 43.0984L98.2965 45.5549L73.7806 27.5064L75.5891 25.0499ZM71.1456 39.226L95.6616 57.2745L93.8531 59.731L69.3372 41.6825L71.1456 39.226ZM66.7206 53.3778L91.2366 71.4263L89.4281 73.8828L64.9122 55.8343L66.7206 53.3778ZM62.2769 67.5538L86.7931 85.6023L84.9847 88.0589L60.4687 70.0104L62.2769 67.5538ZM157.645 50.799L157.728 53.8483L127.296 54.6773L127.213 51.628L157.645 50.799ZM153.193 64.9573L153.276 68.0066L122.844 68.8355L122.761 65.7862L153.193 64.9573ZM148.74 79.1159L148.823 82.1652L118.391 82.9941L118.308 79.9448L148.74 79.1159ZM144.318 93.2733L144.401 96.3226L113.969 97.1516L113.886 94.1023L144.318 93.2733ZM56.3872 24.1298L59.2973 25.0418L42.1526 79.7508L39.2426 78.8389L56.3872 24.1298Z" fill="#242E2C"/>
<path d="M41.7015 78.1179L78.5849 108.246L76.6561 110.607L39.7727 80.4792L41.7015 78.1179ZM171.044 60.0607L173.954 60.9726L156.809 115.682L153.899 114.77L171.044 60.0607Z" fill="#242E2C"/>
<path d="M155.193 113.661L155.429 116.7L107.948 120.39L107.712 117.351L155.193 113.661Z" fill="#242E2C"/>
<path d="M101.375 139.601C101.259 139.564 101.152 139.499 101.015 139.424C100.43 139.049 100.176 138.33 100.376 137.69L106.395 118.483C106.578 117.901 107.1 117.458 107.717 117.427L117.541 116.671C118.033 116.633 118.538 116.856 118.864 117.245C119.189 117.635 119.276 118.173 119.13 118.639L113.211 137.525C113.029 138.107 112.516 138.522 111.919 138.59C111.322 138.659 110.738 138.38 110.42 137.865L108.242 134.21L102.846 139.294C102.476 139.658 101.899 139.765 101.375 139.601ZM108.995 120.385L105.019 133.072L107.561 130.673C107.883 130.359 108.343 130.215 108.807 130.265C109.262 130.343 109.662 130.597 109.891 130.988L111.294 133.345L115.516 119.871L108.995 120.385Z" fill="#242E2C"/>
</g>
<defs>
<clipPath id="clip0_179_5862">
<rect width="156.14" height="156.14" fill="white" transform="translate(46.6919) rotate(17.3999)"/>
</clipPath>
</defs>
</svg>
