<svg width="18" height="18" viewBox="0 0 18 18" fill="none" xmlns="http://www.w3.org/2000/svg">
<path fill-rule="evenodd" clip-rule="evenodd" d="M9.03141 2.81256C6.58326 2.79928 4.51062 4.88688 4.51403 7.31178L4.51404 7.31258L4.51403 7.87508C4.51403 10.4714 3.96966 12.035 3.44727 12.9376H14.5527C14.0303 12.035 13.4859 10.4714 13.4859 7.87508V7.37586C13.4859 4.88341 11.4964 2.83154 9.03141 2.81256ZM3.38903 7.31298C3.38497 4.26759 5.96168 1.67046 9.03826 1.68758L9.03939 1.68759C12.1429 1.7111 14.6109 4.28567 14.6109 7.37586V7.87508C14.6109 10.3126 15.121 11.6739 15.5266 12.3745L15.527 12.3751C15.6255 12.5458 15.6775 12.7394 15.6777 12.9366C15.6779 13.1337 15.6262 13.3275 15.5279 13.4984C15.4297 13.6693 15.2882 13.8113 15.1178 13.9104C14.9473 14.0094 14.7538 14.0619 14.5566 14.0626L14.5547 14.0626H3.44528L3.4433 14.0626C3.24616 14.0619 3.05266 14.0094 2.88219 13.9104C2.71172 13.8113 2.57027 13.6693 2.472 13.4984C2.37373 13.3275 2.32209 13.1337 2.32227 12.9366C2.32244 12.7394 2.37442 12.5458 2.47299 12.3751L2.47333 12.3745C2.87896 11.6739 3.38903 10.3126 3.38903 7.87508V7.31298Z" fill="#242E2C"/>
<path fill-rule="evenodd" clip-rule="evenodd" d="M6.74997 12.9376C7.06063 12.9376 7.31247 13.1894 7.31247 13.5001V14.0626C7.31247 14.5101 7.49026 14.9394 7.80673 15.2558C8.1232 15.5723 8.55242 15.7501 8.99997 15.7501C9.44752 15.7501 9.87675 15.5723 10.1932 15.2558C10.5097 14.9394 10.6875 14.5101 10.6875 14.0626V13.5001C10.6875 13.1894 10.9393 12.9376 11.25 12.9376C11.5606 12.9376 11.8125 13.1894 11.8125 13.5001V14.0626C11.8125 14.8085 11.5162 15.5239 10.9887 16.0513C10.4613 16.5788 9.74589 16.8751 8.99997 16.8751C8.25405 16.8751 7.53868 16.5788 7.01123 16.0513C6.48379 15.5239 6.18747 14.8085 6.18747 14.0626V13.5001C6.18747 13.1894 6.43931 12.9376 6.74997 12.9376Z" fill="#242E2C"/>
</svg>
