<svg width="18" height="18" viewBox="0 0 18 18" fill="none" xmlns="http://www.w3.org/2000/svg">
<path d="M8.4375 14.25V11.6798C7.7865 11.5855 7.21319 11.3309 6.71756 10.9161C6.22194 10.5012 5.88562 9.97981 5.70863 9.35194C4.84325 9.24906 4.113 8.88175 3.51787 8.25C2.92262 7.61825 2.625 6.86825 2.625 6V5.48081C2.625 5.10794 2.75775 4.78875 3.02325 4.52325C3.28875 4.25775 3.60794 4.125 3.98081 4.125H5.49525V3.98081C5.49525 3.60794 5.628 3.28875 5.8935 3.02325C6.159 2.75775 6.47819 2.625 6.85106 2.625H11.1489C11.5218 2.625 11.841 2.75775 12.1065 3.02325C12.372 3.28875 12.5048 3.60794 12.5048 3.98081V4.125H14.0192C14.3921 4.125 14.7113 4.25775 14.9768 4.52325C15.2423 4.78875 15.375 5.10794 15.375 5.48081V6C15.375 6.86825 15.0774 7.61825 14.4821 8.25C13.887 8.88175 13.1567 9.24906 12.2914 9.35194C12.1144 9.97981 11.7781 10.5012 11.2824 10.9161C10.7868 11.3309 10.2135 11.5855 9.5625 11.6798V14.25H11.6683C11.8277 14.25 11.9613 14.3039 12.069 14.4118C12.1769 14.5197 12.2308 14.6533 12.2308 14.8127C12.2308 14.9722 12.1769 15.1058 12.069 15.2134C11.9613 15.3211 11.8277 15.375 11.6683 15.375H6.33169C6.17231 15.375 6.03875 15.3211 5.931 15.2132C5.82313 15.1053 5.76919 14.9717 5.76919 14.8123C5.76919 14.6528 5.82313 14.5192 5.931 14.4116C6.03875 14.3039 6.17231 14.25 6.33169 14.25H8.4375ZM5.49525 8.14331V5.25H3.98081C3.91344 5.25 3.85813 5.27163 3.81488 5.31488C3.77163 5.35813 3.75 5.41344 3.75 5.48081V6C3.75 6.51825 3.91394 6.97644 4.24181 7.37456C4.56969 7.77256 4.9875 8.02881 5.49525 8.14331ZM9.00169 10.6011C9.65919 10.6011 10.2175 10.3711 10.6766 9.91106C11.1357 9.45106 11.3653 8.89256 11.3653 8.23556V3.98081C11.3653 3.91344 11.3437 3.85813 11.3004 3.81488C11.2572 3.77163 11.2019 3.75 11.1347 3.75H6.86531C6.79806 3.75 6.74281 3.77163 6.69956 3.81488C6.65631 3.85813 6.63469 3.91344 6.63469 3.98081V8.23556C6.63469 8.89256 6.86481 9.45106 7.32506 9.91106C7.78531 10.3711 8.34419 10.6011 9.00169 10.6011ZM12.5048 8.14331C13.0125 8.02881 13.4303 7.77256 13.7582 7.37456C14.0861 6.97644 14.25 6.51825 14.25 6V5.48081C14.25 5.41344 14.2284 5.35813 14.1851 5.31488C14.1419 5.27163 14.0866 5.25 14.0192 5.25H12.5048V8.14331Z" fill="#242E2C"/>
</svg>
