<svg width="18" height="18" viewBox="0 0 18 18" fill="none" xmlns="http://www.w3.org/2000/svg">
<path d="M8.43751 15.563V12.8586C8.43751 12.1683 8.33607 11.6399 8.1332 11.2735C7.93032 10.9071 7.64426 10.5591 7.27501 10.2293L8.07695 9.42739C8.23657 9.57451 8.39595 9.74545 8.55507 9.9402C8.7142 10.1348 8.86251 10.3413 9.00001 10.5597C9.16063 10.2885 9.34595 10.0382 9.55595 9.80895C9.76607 9.57958 9.98413 9.36295 10.2101 9.15908C10.762 8.66395 11.2269 8.06876 11.6048 7.37351C11.9826 6.67826 12.1745 5.56627 12.1804 4.03752L11.2067 5.01101C11.1028 5.11489 10.9743 5.16801 10.821 5.17039C10.6676 5.17276 10.5328 5.11964 10.4164 5.01101C10.3 4.89464 10.2418 4.76101 10.2418 4.61014C10.2418 4.45914 10.3 4.32545 10.4164 4.20908L12.2754 2.35002C12.3457 2.27977 12.4198 2.23027 12.4976 2.20152C12.5755 2.17264 12.6596 2.1582 12.75 2.1582C12.8404 2.1582 12.9245 2.17264 13.0024 2.20152C13.0803 2.23027 13.1543 2.27977 13.2246 2.35002L15.0953 4.2207C15.199 4.32458 15.254 4.45314 15.2603 4.60639C15.2665 4.75977 15.2115 4.89464 15.0953 5.01101C14.9865 5.11964 14.8548 5.17395 14.7 5.17395C14.5453 5.17395 14.4135 5.11964 14.3048 5.01101L13.3052 4.02308C13.2994 5.7577 13.0641 7.04639 12.5993 7.88914C12.1344 8.73189 11.5938 9.43408 10.9774 9.9957C10.563 10.3726 10.2236 10.7437 9.95907 11.1091C9.6947 11.4745 9.56251 12.0576 9.56251 12.8586V15.563C9.56251 15.7226 9.50863 15.8562 9.40088 15.9638C9.29326 16.0716 9.15963 16.1255 9.00001 16.1255C8.84038 16.1255 8.70676 16.0716 8.59913 15.9638C8.49138 15.8562 8.43751 15.7226 8.43751 15.563ZM4.85907 6.11014C4.80432 5.85526 4.7652 5.53939 4.7417 5.16252C4.71807 4.78552 4.70245 4.4057 4.69482 4.02308L3.69526 5.02264C3.59138 5.12639 3.46276 5.17951 3.30938 5.18201C3.15601 5.18439 3.02113 5.12739 2.90476 5.01101C2.79613 4.90239 2.74182 4.77064 2.74182 4.61577C2.74182 4.46102 2.79613 4.32933 2.90476 4.2207L4.77545 2.35002C4.8457 2.27977 4.91976 2.23027 4.99763 2.20152C5.07551 2.17264 5.15963 2.1582 5.25001 2.1582C5.34038 2.1582 5.42451 2.17264 5.50238 2.20152C5.58026 2.23027 5.65432 2.27977 5.72457 2.35002L7.59526 4.2207C7.70676 4.3322 7.76176 4.4627 7.76026 4.6122C7.75888 4.7617 7.70001 4.89464 7.58363 5.01101C7.46726 5.11964 7.33551 5.17395 7.18838 5.17395C7.04138 5.17395 6.9097 5.11964 6.79332 5.01101L5.81963 4.04895C5.81488 4.38845 5.8262 4.71589 5.85357 5.03127C5.88095 5.34664 5.91438 5.61876 5.95388 5.84764L4.85907 6.11014ZM6.36357 9.34508C6.13757 9.0922 5.91857 8.79683 5.70657 8.45895C5.49457 8.12095 5.31788 7.74614 5.17651 7.33452L6.2597 7.06489C6.36545 7.35427 6.49595 7.62377 6.6512 7.87339C6.80645 8.12289 6.97782 8.3462 7.16532 8.54333L6.36357 9.34508Z" fill="#242E2C"/>
</svg>
