<svg width="18" height="18" viewBox="0 0 18 18" fill="none" xmlns="http://www.w3.org/2000/svg">
<path d="M9 16.1254C8.11538 16.1254 7.28656 15.9581 6.51356 15.6234C5.74044 15.2888 5.06638 14.834 4.49137 14.259C3.91637 13.684 3.46156 13.0099 3.12694 12.2368C2.79231 11.4638 2.625 10.635 2.625 9.75037C2.625 9.59074 2.67887 9.45712 2.78662 9.34949C2.89425 9.24174 3.02788 9.18787 3.1875 9.18787C3.34713 9.18787 3.48075 9.24174 3.58838 9.34949C3.69613 9.45712 3.75 9.59074 3.75 9.75037C3.75 11.2129 4.25938 12.4535 5.27813 13.4722C6.29688 14.491 7.5375 15.0004 9 15.0004C10.4625 15.0004 11.7031 14.491 12.7219 13.4722C13.7406 12.4535 14.25 11.2129 14.25 9.75037C14.25 8.28787 13.7406 7.04724 12.7219 6.02849C11.7031 5.00974 10.4625 4.50037 9 4.50037H8.80088L9.59719 5.29649C9.70869 5.40812 9.76369 5.53868 9.76219 5.68818C9.76081 5.83768 9.70581 5.97056 9.59719 6.08681C9.48081 6.20318 9.34713 6.26331 9.19613 6.26718C9.04525 6.27106 8.91162 6.21481 8.79525 6.09843L7.10925 4.40512C6.97363 4.26962 6.90581 4.11149 6.90581 3.93074C6.90581 3.74987 6.97363 3.59168 7.10925 3.45618L8.80969 1.76287C8.92119 1.65137 9.05363 1.59631 9.207 1.59768C9.36038 1.59918 9.49525 1.65812 9.61163 1.77449C9.72025 1.89074 9.7765 2.02243 9.78038 2.16956C9.78413 2.31668 9.72788 2.44843 9.61163 2.56481L8.80088 3.37537H9C9.88463 3.37537 10.7134 3.54268 11.4864 3.87731C12.2596 4.21193 12.9336 4.66674 13.5086 5.24174C14.0836 5.81674 14.5384 6.49081 14.8731 7.26393C15.2077 8.03693 15.375 8.86574 15.375 9.75037C15.375 10.635 15.2077 11.4638 14.8731 12.2368C14.5384 13.0099 14.0836 13.684 13.5086 14.259C12.9336 14.834 12.2596 15.2888 11.4864 15.6234C10.7134 15.9581 9.88463 16.1254 9 16.1254Z" fill="#242E2C"/>
</svg>
