<svg width="18" height="18" viewBox="0 0 18 18" fill="none" xmlns="http://www.w3.org/2000/svg">
<path d="M2.4375 16.5864C2.27813 16.5864 2.14456 16.5325 2.03681 16.4246C1.92894 16.3169 1.875 16.1833 1.875 16.0238C1.875 15.8643 1.92894 15.7307 2.03681 15.6231C2.14456 15.5153 2.27813 15.4614 2.4375 15.4614H15.5625C15.7219 15.4614 15.8554 15.5154 15.9632 15.6233C16.0711 15.7311 16.125 15.8648 16.125 16.0243C16.125 16.1837 16.0711 16.3173 15.9632 16.425C15.8554 16.5326 15.7219 16.5864 15.5625 16.5864H2.4375ZM4.053 14.625C3.86088 14.625 3.69987 14.56 3.57 14.43C3.44 14.3001 3.375 14.1391 3.375 13.947V10.6153C2.95288 9.84906 2.6305 9.07819 2.40788 8.30269C2.18537 7.52719 2.07413 6.76494 2.07413 6.01594C2.07413 5.33994 2.16019 4.65844 2.33231 3.97144C2.50444 3.28444 2.73375 2.55344 3.02025 1.77844C3.09138 1.58319 3.20819 1.4255 3.37069 1.30537C3.53319 1.18512 3.71825 1.125 3.92588 1.125C4.20288 1.125 4.438 1.22381 4.63125 1.42144C4.8245 1.61906 4.90331 1.851 4.86769 2.11725L4.66875 3.74419C4.59375 4.37306 4.66006 4.98031 4.86769 5.56594C5.07544 6.15144 5.381 6.67019 5.78438 7.12219C6.18775 7.57406 6.66731 7.9375 7.22306 8.2125C7.77881 8.4875 8.37113 8.625 9 8.625C9.76438 8.625 10.4947 8.69112 11.1909 8.82338C11.8871 8.95563 12.4875 9.14625 12.9923 9.39525C13.5115 9.65388 13.9134 9.98463 14.1981 10.3875C14.4827 10.7904 14.625 11.2904 14.625 11.8875V13.947C14.625 14.1391 14.56 14.3001 14.43 14.43C14.3001 14.56 14.1391 14.625 13.947 14.625H4.053ZM4.5 13.5H13.5V11.8875C13.5 11.5635 13.4178 11.2786 13.2534 11.0329C13.0889 10.7873 12.8499 10.5884 12.5364 10.4364C12.0769 10.2153 11.5313 10.0456 10.8996 9.92737C10.2678 9.80912 9.63463 9.75 9 9.75C8.20388 9.75 7.45506 9.57644 6.75356 9.22931C6.05219 8.88219 5.44981 8.42188 4.94644 7.84838C4.44306 7.27475 4.06275 6.6185 3.8055 5.87963C3.54825 5.14063 3.46725 4.38075 3.5625 3.6C3.4375 3.975 3.34688 4.37019 3.29063 4.78556C3.23438 5.20094 3.20625 5.61106 3.20625 6.01594C3.20625 6.69756 3.32594 7.38963 3.56531 8.09213C3.80481 8.7945 4.11638 9.53175 4.5 10.3039V13.5ZM9 7.70194C8.27813 7.70194 7.66019 7.44494 7.14619 6.93094C6.63206 6.41681 6.375 5.79881 6.375 5.07694C6.375 4.35506 6.63206 3.73713 7.14619 3.22313C7.66019 2.709 8.27813 2.45194 9 2.45194C9.72188 2.45194 10.3398 2.709 10.8538 3.22313C11.3679 3.73713 11.625 4.35506 11.625 5.07694C11.625 5.79881 11.3679 6.41681 10.8538 6.93094C10.3398 7.44494 9.72188 7.70194 9 7.70194ZM9 6.57694C9.4125 6.57694 9.76563 6.43006 10.0594 6.13631C10.3531 5.84256 10.5 5.48944 10.5 5.07694C10.5 4.66444 10.3531 4.31131 10.0594 4.01756C9.76563 3.72381 9.4125 3.57694 9 3.57694C8.5875 3.57694 8.23438 3.72381 7.94063 4.01756C7.64688 4.31131 7.5 4.66444 7.5 5.07694C7.5 5.48944 7.64688 5.84256 7.94063 6.13631C8.23438 6.43006 8.5875 6.57694 9 6.57694ZM6.20194 14.625V14.1259C6.20194 13.3558 6.47094 12.6983 7.00894 12.1536C7.54694 11.6089 8.201 11.3366 8.97113 11.3366H11.1778C11.3372 11.3366 11.4708 11.3905 11.5787 11.4983C11.6864 11.6061 11.7403 11.7398 11.7403 11.8993C11.7403 12.0587 11.6864 12.1923 11.5787 12.3C11.4708 12.4076 11.3372 12.4614 11.1778 12.4614H8.97113C8.50525 12.4614 8.11475 12.6242 7.79963 12.9497C7.4845 13.2752 7.32694 13.6673 7.32694 14.1259V14.625H6.20194Z" fill="#242E2C"/>
</svg>
